<svg width="299" height="299" viewBox="0 0 299 299" fill="none" xmlns="http://www.w3.org/2000/svg">
<path d="M31.48 154.479V176.959C31.4841 180.046 32.4094 183.062 34.1374 185.62C35.8655 188.178 38.3176 190.163 41.18 191.319V140.119C38.316 141.273 35.8624 143.257 34.134 145.816C32.4056 148.375 31.4814 151.391 31.48 154.479Z" fill="#A5489B"/>
<path d="M210.73 92.1791C208.47 92.0091 206.2 91.8892 203.94 91.7392L198.71 107.959C193.8 123.209 181.76 133.069 168.03 133.069H127.39C113.29 133.069 105.92 122.429 101.39 106.489V89.8892C99.2101 90.0292 87.7101 92.0191 85.5301 92.1791C76.5304 92.9178 68.1386 97.0172 62.0239 103.662C55.9093 110.306 52.5199 119.009 52.5301 128.039V206.429C52.4993 213.681 54.6661 220.772 58.745 226.768C62.824 232.765 68.6237 237.384 75.3801 240.019C123.64 259.019 172.58 259.019 220.83 240.019C227.587 237.384 233.386 232.765 237.465 226.768C241.544 220.772 243.711 213.681 243.68 206.429V128.039C243.691 119.017 240.309 110.321 234.205 103.678C228.1 97.0343 219.721 92.9297 210.73 92.1791Z" fill="#E5D1E6"/>
<path d="M203.65 87.2092C201.4 87.0392 199.13 86.9192 196.87 86.7692L191.64 102.959C186.73 118.209 174.64 128.079 160.96 128.079H120.31C106.2 128.079 98.8399 117.429 94.3099 101.489V84.9592C92.1299 85.0992 80.6299 87.0892 78.4499 87.2492C69.4494 87.9856 61.0562 92.0842 54.9411 98.7293C48.826 105.374 45.4374 114.079 45.4499 123.109V201.509C45.4272 208.754 47.599 215.837 51.6796 221.824C55.7601 227.81 61.5579 232.421 68.3099 235.049C116.56 254.049 165.5 254.049 213.75 235.049C220.507 232.418 226.309 227.8 230.39 221.806C234.471 215.811 236.639 208.721 236.61 201.469V123.069C236.621 114.046 233.237 105.348 227.131 98.7045C221.024 92.0609 212.642 87.9574 203.65 87.2092Z" fill="#B972AF"/>
<path d="M127.57 121.029H168.2C176.83 121.029 184.57 114.409 187.9 104.179L192.19 91.0291C177.603 90.2824 162.977 89.9025 148.31 89.8892C133.643 89.8759 118.9 90.2591 104.08 91.0391L107.53 103.039C110.61 113.799 118.67 121.029 127.57 121.029Z" fill="#E5D1E6"/>
<path d="M255.44 140.129V191.329C258.3 190.171 260.75 188.186 262.477 185.628C264.203 183.07 265.127 180.055 265.13 176.969V154.479C265.129 151.394 264.206 148.379 262.479 145.823C260.752 143.266 258.301 141.283 255.44 140.129Z" fill="#A5489B"/>
<path d="M256.37 127.349C256.257 115.27 251.617 103.673 243.366 94.8495C235.115 86.0266 223.855 80.6201 211.81 79.6992C193.39 78.3592 174.28 77.6092 155.02 77.4592V71.8592C160.543 70.2444 165.298 66.692 168.413 61.8539C171.528 57.0159 172.794 51.2168 171.979 45.5208C171.163 39.8248 168.32 34.6139 163.973 30.8445C159.625 27.0751 154.064 25 148.31 25C142.556 25 136.995 27.0751 132.647 30.8445C128.3 34.6139 125.457 39.8248 124.641 45.5208C123.826 51.2168 125.092 57.0159 128.207 61.8539C131.322 66.692 136.077 70.2444 141.6 71.8592V77.4592C122.34 77.6092 103.23 78.3592 84.81 79.6992C72.7654 80.6201 61.5046 86.0266 53.2538 94.8495C45.003 103.673 40.3626 115.27 40.25 127.349C34.1994 128.872 28.8273 132.364 24.98 137.276C21.1327 142.188 19.0289 148.24 19 154.479V176.959C19.0272 183.199 21.1303 189.252 24.9779 194.164C28.8255 199.076 34.1985 202.568 40.25 204.089V205.089C40.2298 211.437 41.4771 217.724 43.919 223.583C46.3608 229.442 49.9479 234.755 54.47 239.209C57.8316 242.528 61.6625 245.334 65.84 247.539C67.5297 248.434 69.2692 249.232 71.05 249.929C120.62 269.902 176 269.902 225.57 249.929C227.277 249.261 228.946 248.5 230.57 247.649C234.762 245.456 238.613 242.663 242 239.359C246.566 234.899 250.19 229.567 252.659 223.681C255.127 217.794 256.389 211.472 256.37 205.089V204.089C262.421 202.568 267.795 199.076 271.642 194.164C275.49 189.252 277.593 183.199 277.62 176.959V154.469C277.589 148.232 275.484 142.182 271.637 137.272C267.79 132.362 262.419 128.871 256.37 127.349ZM40.25 189.869C37.8866 188.645 35.9058 186.793 34.5247 184.518C33.1435 182.243 32.4154 179.631 32.42 176.969V154.479C32.4154 151.817 33.1435 149.206 34.5247 146.93C35.9058 144.655 37.8866 142.804 40.25 141.579V189.869ZM137.82 48.9592C137.822 46.8849 138.439 44.8577 139.593 43.134C140.747 41.4102 142.386 40.0672 144.303 39.2748C146.22 38.4824 148.328 38.2761 150.363 38.6819C152.397 39.0878 154.265 40.0877 155.731 41.5552C157.197 43.0226 158.195 44.8917 158.599 46.9263C159.003 48.9609 158.795 51.0696 158.001 52.9858C157.206 54.902 155.862 56.5397 154.137 57.692C152.412 58.8442 150.384 59.4592 148.31 59.4592C146.932 59.4592 145.567 59.1875 144.293 58.6597C143.02 58.1319 141.863 57.3584 140.889 56.3832C139.915 55.4081 139.142 54.2505 138.616 52.9766C138.089 51.7028 137.819 50.3376 137.82 48.9592ZM148.31 90.8192C162.2 90.8192 176.53 91.1891 190.93 91.8991L187.01 103.899C183.8 113.739 176.42 120.099 168.2 120.099H127.57C119.08 120.099 111.4 113.099 108.42 102.809L105.31 91.9592C119.8 91.1992 134.25 90.8192 148.31 90.8192ZM242.95 205.079C242.962 210.141 241.858 215.144 239.714 219.73C237.571 224.315 234.442 228.372 230.55 231.609C227.598 234.063 224.269 236.022 220.69 237.409C219.31 237.959 217.93 238.479 216.53 238.989C172.495 255.628 123.896 255.6 79.88 238.909C78.56 238.419 77.24 237.909 75.93 237.409C72.2942 235.998 68.9156 233.998 65.93 231.489C62.0825 228.25 58.9918 224.206 56.8753 219.643C54.7589 215.08 53.6682 210.109 53.68 205.079V127.609C53.7149 118.873 57.0382 110.47 62.9883 104.074C68.9385 97.6768 77.0792 93.7551 85.79 93.0892L89.85 92.8292L91.57 92.7292L95.57 106.499C100.22 122.659 113.09 133.499 127.62 133.499H168.25C182.39 133.499 194.78 123.499 199.82 108.039L204.82 92.6992L206.62 92.8091C208.03 92.8991 209.46 92.9792 210.86 93.0792C219.572 93.745 227.714 97.6663 233.665 104.063C239.617 110.459 242.943 118.862 242.98 127.599L242.95 205.079ZM264.2 176.959C264.205 179.621 263.476 182.233 262.095 184.508C260.714 186.783 258.733 188.635 256.37 189.859V141.569C258.733 142.794 260.714 144.645 262.095 146.92C263.476 149.196 264.205 151.807 264.2 154.469V176.959Z" fill="#5C2467"/>
<path d="M189.18 152.239C181.49 152.239 175.24 161.329 175.24 172.509C175.24 183.689 181.49 192.789 189.18 192.789C196.87 192.789 203.11 183.689 203.11 172.509C203.11 161.329 196.86 152.239 189.18 152.239Z" fill="#5C2467"/>
<path d="M107.44 152.239C99.76 152.239 93.51 161.329 93.51 172.509C93.51 183.689 99.76 192.789 107.44 192.789C115.12 192.789 121.38 183.689 121.38 172.509C121.38 161.329 115.13 152.239 107.44 152.239Z" fill="#5C2467"/>
<path d="M148.31 61.8392C155.341 61.8392 161.04 56.1398 161.04 49.1092C161.04 42.0786 155.341 36.3792 148.31 36.3792C141.28 36.3792 135.58 42.0786 135.58 49.1092C135.58 56.1398 141.28 61.8392 148.31 61.8392Z" fill="#E5D1E6"/>
<path d="M164.47 230.689H131.75V221.609H137.64V224.799H158.58V221.609H164.47V230.689Z" fill="#5C2467"/>
</svg>
