<svg width="277" height="416" viewBox="0 0 277 416" fill="none" xmlns="http://www.w3.org/2000/svg">
<path d="M209.2 261.551C209.294 256.122 208.486 250.716 206.81 245.551C206.33 244.11 205.752 242.704 205.08 241.341C204.58 241.191 204.08 241.021 203.57 240.881L204 239.331C202.648 236.999 201.008 234.845 199.12 232.921C196.26 233.795 193.393 234.608 190.52 235.361C153.345 245.235 114.135 244.389 77.4201 232.921C75.5348 234.846 73.8987 236.999 72.5501 239.331L72.9801 240.881C72.4701 241.021 71.9801 241.191 71.4701 241.341C70.7985 242.704 70.2205 244.11 69.7401 245.551C68.0641 250.716 67.2564 256.122 67.3501 261.551C67.3501 273.411 70.5901 286.751 76.4701 300.041L77.6301 302.111L77.4501 302.211C81.9685 311.876 87.5424 321.012 94.0701 329.451C108.89 348.671 126.66 361.581 138.27 361.581C140.236 361.552 142.188 361.249 144.07 360.681C155.32 357.431 169.95 345.681 182.48 329.451C189.005 321.012 194.575 311.876 199.09 302.211L198.92 302.111L200.08 300.041C205.96 286.751 209.2 273.411 209.2 261.551ZM138.27 313.911C133.369 313.909 128.58 312.454 124.506 309.73C120.432 307.006 117.257 303.135 115.383 298.607C113.509 294.079 113.02 289.097 113.977 284.291C114.935 279.485 117.296 275.07 120.762 271.606C124.227 268.141 128.643 265.782 133.449 264.827C138.256 263.871 143.238 264.363 147.765 266.238C152.293 268.114 156.162 271.29 158.885 275.365C161.607 279.44 163.06 284.231 163.06 289.131C163.052 295.703 160.437 302.002 155.79 306.648C151.142 311.294 144.841 313.906 138.27 313.911Z" fill="#E5D1E6"/>
<path d="M201.45 264.831C201.561 259.094 200.654 253.382 198.77 247.961C198.34 246.801 197.86 245.681 197.33 244.591C196.83 244.431 196.33 244.271 195.81 244.131L196.25 242.581C194.701 239.9 192.771 237.458 190.52 235.331C153.345 245.204 114.135 244.359 77.4201 232.891C76.4201 232.601 75.5101 232.301 74.5501 231.991C70.5757 234.778 67.2499 238.391 64.8001 242.581L65.2001 244.011V244.131C64.6901 244.271 64.2001 244.431 63.6801 244.591C60.9201 250.221 59.5701 256.921 59.5701 264.831C59.5701 276.691 62.8101 290.031 68.6901 303.321L69.8401 305.391L69.6701 305.491C74.1885 315.156 79.7624 324.292 86.2901 332.731C101.11 351.941 118.88 364.861 130.49 364.861C134.42 364.861 139.05 363.381 144.04 360.681C153.79 355.401 164.89 345.441 174.7 332.731C181.225 324.292 186.795 315.156 191.31 305.491L191.14 305.391L192.3 303.321C198.21 290.031 201.45 276.691 201.45 264.831Z" fill="#B972AF"/>
<path d="M51.77 251.411C35.52 263.751 28.24 281.261 26.01 287.701C21.07 301.941 22.33 310.791 23.37 312.471C29.09 316.841 38.24 311.101 52.6 301.401C54.66 300.021 56.76 298.611 58.88 297.221C54.15 284.691 51.34 271.791 51.34 259.421C51.3364 256.745 51.4799 254.071 51.77 251.411Z" fill="#A5489B"/>
<path d="M217.66 297.221C219.78 298.611 221.88 300.021 223.94 301.401C238.3 311.101 247.45 316.841 253.17 312.471C254.17 310.791 255.47 301.941 250.53 287.701C248.3 281.261 241.02 263.751 224.77 251.411C225.06 254.068 225.203 256.739 225.2 259.411C225.2 271.791 222.39 284.691 217.66 297.221Z" fill="#A5489B"/>
<path d="M138.27 279.351C136.336 279.351 134.445 279.925 132.837 280.999C131.228 282.074 129.975 283.601 129.234 285.389C128.494 287.176 128.301 289.142 128.678 291.039C129.055 292.936 129.987 294.679 131.354 296.047C132.722 297.414 134.465 298.346 136.362 298.723C138.259 299.101 140.226 298.907 142.013 298.167C143.8 297.427 145.327 296.173 146.402 294.565C147.476 292.956 148.05 291.065 148.05 289.131C148.047 286.538 147.016 284.052 145.183 282.219C143.349 280.385 140.863 279.354 138.27 279.351Z" fill="#E5D1E6"/>
<path d="M13.3501 138.471V162.521C13.3547 165.821 14.344 169.045 16.1914 171.78C18.0388 174.514 20.6602 176.635 23.7201 177.871V123.131C20.6602 124.364 18.0384 126.483 16.1908 129.216C14.3432 131.95 13.354 135.172 13.3501 138.471Z" fill="#A5489B"/>
<path d="M205.01 71.8513C202.6 71.6713 200.18 71.5413 197.76 71.3913L192.16 88.7312C186.91 105.041 174.03 115.581 159.36 115.581H115.9C100.82 115.581 92.9501 104.201 88.1101 87.1613V69.4113C85.7801 69.5613 73.4801 71.6813 71.1101 71.8513C51.3401 73.3113 35.8401 90.1612 35.8401 110.201V194.031C35.811 201.785 38.1304 209.365 42.4929 215.775C46.8554 222.185 53.0565 227.124 60.2801 229.941C111.88 250.291 164.21 250.291 215.8 229.941C223.03 227.13 229.238 222.193 233.607 215.783C237.975 209.372 240.298 201.789 240.27 194.031V110.201C240.27 90.1612 224.79 73.3113 205.01 71.8513Z" fill="#E5D1E6"/>
<path d="M197.45 66.5412C195.03 66.3612 192.61 66.2312 190.19 66.0712L184.6 83.4112C179.35 99.7312 166.47 110.271 151.79 110.271H108.34C93.2601 110.271 85.3401 98.8912 80.5501 81.8512V64.0912C78.2201 64.2512 65.9201 66.3712 63.5501 66.5412C43.7701 68.0012 28.2801 84.8412 28.2801 104.891V188.711C28.2487 196.473 30.5714 204.062 34.9419 210.477C39.3123 216.891 45.525 221.83 52.7601 224.641C104.36 244.991 156.68 244.991 208.28 224.641C215.506 221.824 221.709 216.884 226.072 210.472C230.435 204.06 232.753 196.477 232.72 188.721V104.891C232.72 84.8412 217.27 68.0012 197.45 66.5412Z" fill="#B972AF"/>
<path d="M116.09 102.701H159.54C168.77 102.701 177.04 95.6313 180.6 84.7013L185.19 70.6413C169.59 69.8546 153.95 69.4513 138.27 69.4313C122.477 69.4313 106.71 69.8413 90.97 70.6613L94.66 83.5113C97.96 94.9813 106.58 102.701 116.09 102.701Z" fill="#E5D1E6"/>
<path d="M252.82 123.131V177.871C255.88 176.635 258.501 174.514 260.349 171.78C262.196 169.045 263.185 165.821 263.19 162.521V138.471C263.186 135.172 262.197 131.95 260.349 129.216C258.502 126.483 255.88 124.364 252.82 123.131Z" fill="#A5489B"/>
<path d="M138.27 264.351C133.369 264.353 128.579 265.808 124.506 268.532C120.432 271.256 117.257 275.127 115.383 279.655C113.509 284.183 113.02 289.165 113.977 293.972C114.935 298.778 117.295 303.192 120.761 306.657C124.227 310.121 128.643 312.48 133.449 313.436C138.256 314.391 143.238 313.9 147.765 312.024C152.293 310.148 156.162 306.972 158.885 302.897C161.607 298.822 163.06 294.032 163.06 289.131C163.052 282.56 160.437 276.26 155.79 271.614C151.142 266.969 144.841 264.356 138.27 264.351ZM138.27 298.911C136.336 298.909 134.446 298.334 132.839 297.258C131.232 296.182 129.98 294.654 129.242 292.867C128.503 291.08 128.311 289.114 128.689 287.217C129.068 285.321 130 283.579 131.368 282.212C132.736 280.845 134.479 279.915 136.376 279.538C138.273 279.162 140.238 279.356 142.025 280.097C143.811 280.837 145.338 282.091 146.412 283.699C147.487 285.307 148.06 287.197 148.06 289.131C148.057 291.726 147.025 294.213 145.189 296.047C143.353 297.881 140.865 298.911 138.27 298.911Z" fill="#5C2467"/>
<path d="M253.82 109.461C253.7 96.5447 248.738 84.1435 239.914 74.7093C231.091 65.2752 219.05 59.4949 206.17 58.5112C186.47 57.0812 166.04 56.2712 145.45 56.1112V50.1112C151.356 48.3834 156.44 44.5839 159.771 39.4099C163.101 34.2359 164.454 28.0344 163.581 21.9433C162.709 15.8523 159.669 10.2802 155.019 6.24956C150.37 2.2189 144.423 0 138.27 0C132.117 0 126.17 2.2189 121.521 6.24956C116.871 10.2802 113.831 15.8523 112.959 21.9433C112.086 28.0344 113.439 34.2359 116.769 39.4099C120.1 44.5839 125.184 48.3834 131.09 50.1112V56.1112C110.5 56.2712 90.09 57.1112 70.37 58.5112C57.4905 59.4949 45.4487 65.2752 36.6256 74.7093C27.8025 84.1435 22.8403 96.5447 22.72 109.461C16.2524 111.09 10.5101 114.823 6.39688 120.073C2.28371 125.323 0.0333226 131.792 0 138.461V162.511C0.0333226 169.181 2.28371 175.65 6.39688 180.9C10.5101 186.15 16.2524 189.883 22.72 191.511C22.72 211.941 32.92 227.951 48.1 236.841C11.7 260.231 0.169998 311.721 14.42 323.211C29.64 335.551 47.61 321.511 64.54 310.211C82.54 346.801 115.07 377.211 138.27 377.211C161.47 377.211 194.04 346.781 212.01 310.211C229.06 321.581 246.9 335.491 262.13 323.211C276.29 311.781 264.98 260.301 228.44 236.831C232.074 234.708 235.433 232.146 238.44 229.201C248.2 219.681 253.81 206.951 253.81 191.511C260.278 189.883 266.02 186.15 270.133 180.9C274.246 175.65 276.497 169.181 276.53 162.511V138.471C276.499 131.801 274.252 125.331 270.14 120.079C266.029 114.827 260.287 111.092 253.82 109.461ZM22.72 176.311C20.1928 175.003 18.0747 173.024 16.5983 170.592C15.1218 168.159 14.3439 165.367 14.35 162.521V138.471C14.3365 135.619 15.1109 132.818 16.5878 130.378C18.0647 127.937 20.1868 125.952 22.72 124.641V176.311ZM127.05 25.6412C127.044 23.4209 127.697 21.2486 128.926 19.3996C130.156 17.5505 131.906 16.1078 133.955 15.2539C136.005 14.4001 138.262 14.1736 140.44 14.6032C142.619 15.0327 144.621 16.0989 146.193 17.6669C147.765 19.2348 148.837 21.234 149.272 23.4113C149.708 25.5886 149.487 27.846 148.639 29.898C147.79 31.9499 146.352 33.704 144.507 34.9382C142.661 36.1724 140.49 36.8312 138.27 36.8312C135.3 36.8286 132.452 35.6498 130.35 33.5527C128.247 31.4556 127.061 28.6109 127.05 25.6412ZM138.27 70.4012C153.12 70.4012 168.44 70.7912 183.84 71.5512L179.65 84.3712C176.22 94.9012 168.33 101.701 159.54 101.701H116.09C107.02 101.701 98.8 94.2712 95.62 83.2112L92.27 71.5712C107.78 70.8012 123.27 70.4012 138.27 70.4012ZM23.38 312.471C19.38 305.991 25.78 271.161 51.78 251.411C50.1 266.601 53.45 282.801 58.89 297.211C42.27 308.151 30.27 317.711 23.38 312.471ZM198.92 302.111L199.09 302.211C183.85 335.071 155.04 361.581 138.27 361.581C121.76 361.581 92.96 335.581 77.45 302.211L77.63 302.111C71.1 290.471 63.37 264.031 69.74 245.521C114.245 260.215 162.295 260.215 206.8 245.521C213.57 265.181 204.27 292.521 198.92 302.111ZM253.17 312.471C246.3 317.721 234.26 308.131 217.66 297.211C223.1 282.801 226.44 266.601 224.77 251.411C250.09 270.641 257.48 305.461 253.17 312.471ZM239.47 192.581C239.479 200.078 237.208 207.4 232.957 213.575C228.705 219.749 222.676 224.485 215.67 227.151C191.027 236.918 164.778 242.005 138.27 242.151C116.795 242.086 95.458 238.713 75.01 232.151C61.56 227.841 55.88 225.641 50.17 220.821C46.0557 217.359 42.7504 213.038 40.487 208.16C38.2237 203.283 37.0573 197.968 37.07 192.591V109.741C37.1082 100.399 40.6628 91.4143 47.0262 84.5747C53.3896 77.7351 62.0951 73.5424 71.41 72.8312C74.63 72.6112 76.59 72.5112 77.59 72.4412L81.82 87.1712C86.82 104.451 100.56 116.051 116.09 116.051H159.54C174.66 116.051 187.91 105.361 193.3 88.8212L198.66 72.4212C201.99 72.6312 203.24 72.6912 205.12 72.8312C214.437 73.54 223.145 77.7317 229.51 84.5715C235.876 91.4114 239.432 100.398 239.47 109.741V192.581ZM262.19 162.521C262.196 165.367 261.418 168.159 259.942 170.592C258.465 173.024 256.347 175.003 253.82 176.311V124.641C256.347 125.949 258.465 127.928 259.942 130.361C261.418 132.793 262.196 135.586 262.19 138.431V162.521Z" fill="#5C2467"/>
<path d="M181.97 136.081C173.75 136.081 167.07 145.801 167.07 157.761C167.07 169.721 173.75 179.441 181.97 179.441C190.19 179.441 196.87 169.711 196.87 157.761C196.87 145.811 190.18 136.081 181.97 136.081Z" fill="#5C2467"/>
<path d="M94.5699 136.081C86.3599 136.081 79.6699 145.801 79.6699 157.761C79.6699 169.721 86.3599 179.441 94.5699 179.441C102.78 179.441 109.47 169.711 109.47 157.761C109.47 145.811 102.79 136.081 94.5699 136.081Z" fill="#5C2467"/>
<path d="M138.27 39.4213C145.792 39.4213 151.89 33.3234 151.89 25.8013C151.89 18.2792 145.792 12.1813 138.27 12.1813C130.748 12.1813 124.65 18.2792 124.65 25.8013C124.65 33.3234 130.748 39.4213 138.27 39.4213Z" fill="#E5D1E6"/>
<path d="M155.55 219.961H120.57V210.251H126.87V213.661H149.26V210.251H155.55V219.961Z" fill="#5C2467"/>
<path d="M138.77 415.241C163.717 415.241 183.94 410.558 183.94 404.781C183.94 399.004 163.717 394.321 138.77 394.321C113.823 394.321 93.6001 399.004 93.6001 404.781C93.6001 410.558 113.823 415.241 138.77 415.241Z" fill="#CCCCCB"/>
</svg>
