<svg width="277" height="422" viewBox="0 0 277 422" fill="none" xmlns="http://www.w3.org/2000/svg">
<path d="M138.27 264.351C133.369 264.353 128.579 265.808 124.506 268.532C120.432 271.256 117.257 275.127 115.383 279.655C113.509 284.183 113.02 289.165 113.977 293.972C114.935 298.778 117.295 303.192 120.761 306.657C124.227 310.121 128.643 312.48 133.449 313.436C138.256 314.391 143.238 313.9 147.765 312.024C152.293 310.148 156.162 306.972 158.884 302.897C161.607 298.822 163.06 294.032 163.06 289.131C163.052 282.56 160.437 276.26 155.79 271.614C151.142 266.969 144.841 264.356 138.27 264.351ZM138.27 298.911C136.336 298.909 134.446 298.334 132.839 297.258C131.232 296.182 129.98 294.654 129.242 292.867C128.503 291.08 128.311 289.114 128.689 287.217C129.068 285.321 130 283.579 131.368 282.212C132.736 280.845 134.479 279.915 136.376 279.538C138.273 279.162 140.239 279.356 142.025 280.097C143.811 280.837 145.338 282.091 146.412 283.699C147.487 285.307 148.06 287.197 148.06 289.131C148.057 291.726 147.025 294.213 145.189 296.047C143.353 297.881 140.865 298.911 138.27 298.911Z" fill="#5C2467"/>
<path d="M253.82 109.461C253.7 96.5447 248.738 84.1435 239.914 74.7093C231.091 65.2752 219.05 59.4949 206.17 58.5112C186.47 57.0812 166.04 56.2712 145.45 56.1112V50.1112C151.356 48.3834 156.44 44.5839 159.771 39.4099C163.101 34.2359 164.454 28.0344 163.582 21.9433C162.709 15.8523 159.669 10.2802 155.02 6.24956C150.37 2.2189 144.423 0 138.27 0C132.117 0 126.17 2.2189 121.521 6.24956C116.871 10.2802 113.831 15.8523 112.958 21.9433C112.086 28.0344 113.439 34.2359 116.769 39.4099C120.1 44.5839 125.184 48.3834 131.09 50.1112V56.1112C110.5 56.2712 90.09 57.1112 70.37 58.5112C57.4904 59.4949 45.4487 65.2752 36.6256 74.7093C27.8025 84.1435 22.8403 96.5447 22.72 109.461C16.2524 111.09 10.5101 114.823 6.39691 120.073C2.28374 125.323 0.0333226 131.792 0 138.461V162.511C0.0333226 169.181 2.28374 175.65 6.39691 180.9C10.5101 186.15 16.2524 189.883 22.72 191.511C22.72 211.941 32.92 227.951 48.1 236.841C11.7 260.231 0.170044 311.721 14.42 323.211C29.64 335.551 47.61 321.511 64.54 310.211C82.54 346.801 115.07 377.211 138.27 377.211C161.47 377.211 194.04 346.781 212.01 310.211C229.01 321.581 246.9 335.491 262.13 323.211C276.29 311.781 264.98 260.301 228.44 236.831C232.074 234.708 235.433 232.146 238.44 229.201C248.2 219.681 253.81 206.951 253.81 191.511C260.278 189.883 266.02 186.15 270.133 180.9C274.246 175.65 276.497 169.181 276.53 162.511V138.471C276.499 131.801 274.252 125.331 270.14 120.079C266.029 114.827 260.287 111.092 253.82 109.461ZM22.72 176.311C20.1928 175.003 18.0748 173.024 16.5983 170.592C15.1218 168.159 14.3439 165.367 14.35 162.521V138.471C14.3439 135.626 15.1218 132.833 16.5983 130.401C18.0748 127.968 20.1928 125.989 22.72 124.681V176.311ZM127.05 25.6412C127.044 23.4209 127.697 21.2486 128.926 19.3996C130.156 17.5505 131.906 16.1078 133.955 15.2539C136.005 14.4001 138.262 14.1736 140.44 14.6032C142.619 15.0327 144.621 16.0989 146.193 17.6669C147.765 19.2348 148.837 21.234 149.272 23.4113C149.708 25.5886 149.487 27.846 148.639 29.898C147.79 31.9499 146.352 33.704 144.507 34.9382C142.661 36.1724 140.49 36.8312 138.27 36.8312C135.3 36.8286 132.452 35.6498 130.35 33.5527C128.247 31.4556 127.061 28.6109 127.05 25.6412ZM138.27 70.4012C153.12 70.4012 168.44 70.7912 183.84 71.5512L179.65 84.3712C176.22 94.9012 168.33 101.701 159.54 101.701H116.09C107.02 101.701 98.8 94.2712 95.62 83.2112L92.27 71.5712C107.78 70.8012 123.27 70.4012 138.27 70.4012ZM23.38 312.471C19.38 305.991 25.78 271.161 51.78 251.411C50.1 266.601 53.45 282.801 58.89 297.211C42.27 308.151 30.27 317.711 23.38 312.471ZM199.09 302.211C183.85 335.071 155.09 361.581 138.27 361.581C121.76 361.581 92.9601 335.581 77.4501 302.211L77.63 302.111C71.1 290.471 63.37 264.031 69.74 245.521C114.245 260.215 162.295 260.215 206.8 245.521C213.56 265.181 204.28 292.521 198.91 302.111L199.09 302.211ZM253.17 312.471C246.3 317.721 234.26 308.131 217.66 297.211C223.1 282.801 226.44 266.601 224.77 251.411C250.09 270.641 257.48 305.461 253.17 312.471ZM239.47 192.581C239.479 200.078 237.208 207.4 232.957 213.575C228.705 219.749 222.676 224.485 215.67 227.151C191.027 236.918 164.778 242.005 138.27 242.151C116.795 242.086 95.4581 238.713 75.01 232.151C61.56 227.841 55.88 225.641 50.17 220.821C46.0557 217.359 42.7504 213.038 40.4871 208.16C38.2237 203.283 37.0573 197.968 37.07 192.591V109.741C37.1082 100.399 40.6629 91.4143 47.0262 84.5747C53.3896 77.7351 62.0951 73.5424 71.41 72.8312C74.63 72.6112 76.59 72.5112 77.59 72.4412L81.8201 87.1712C86.8201 104.451 100.56 116.051 116.09 116.051H159.54C174.66 116.051 187.91 105.361 193.3 88.8212L198.66 72.4212C201.99 72.6312 203.24 72.6912 205.12 72.8312C214.437 73.54 223.145 77.7317 229.51 84.5715C235.876 91.4114 239.432 100.398 239.47 109.741V192.581ZM262.19 162.521C262.196 165.367 261.418 168.159 259.942 170.592C258.465 173.024 256.347 175.003 253.82 176.311V124.641C256.347 125.949 258.465 127.928 259.942 130.361C261.418 132.793 262.196 135.586 262.19 138.431V162.521Z" fill="#5C2467"/>
<path d="M181.97 136.081C173.75 136.081 167.07 145.801 167.07 157.761C167.07 169.721 173.75 179.441 181.97 179.441C190.19 179.441 196.87 169.711 196.87 157.761C196.87 145.811 190.18 136.081 181.97 136.081Z" fill="#5C2467"/>
<path d="M94.5699 136.081C86.3599 136.081 79.6699 145.801 79.6699 157.761C79.6699 169.721 86.3599 179.441 94.5699 179.441C102.78 179.441 109.47 169.711 109.47 157.761C109.47 145.811 102.79 136.081 94.5699 136.081Z" fill="#5C2467"/>
<path d="M149.25 213.661H126.87V210.251H120.57V219.961H155.55V210.251H149.25V213.661Z" fill="#5C2467"/>
<path d="M138.77 421.511C163.717 421.511 183.94 416.828 183.94 411.051C183.94 405.274 163.717 400.591 138.77 400.591C113.823 400.591 93.6001 405.274 93.6001 411.051C93.6001 416.828 113.823 421.511 138.77 421.511Z" fill="#CCCCCB"/>
</svg>
