<svg width="284" height="284" viewBox="0 0 284 284" fill="none" xmlns="http://www.w3.org/2000/svg">
<g clip-path="url(#clip0)">
<rect width="284" height="284" fill="white"/>
<g filter="url(#filter0_d)">
<rect width="284" height="284" fill="url(#paint0_linear)"/>
</g>
<g filter="url(#filter1_d)">
<path d="M74.6641 207H66.4641V241H92.5141V233.4H74.6641V207ZM116.549 207H108.349V241H116.549V207ZM167.369 207H159.119V227.75L141.919 207H133.669V241H141.919V220.2L159.119 241H167.369V207ZM207.701 228.75C206.051 231.75 202.951 233.9 198.751 233.9C192.801 233.9 188.651 229.15 188.651 223.75C188.651 218.15 192.801 213.8 198.751 213.8C203.051 213.8 206.201 215.85 207.801 218.95L214.751 214.9C211.701 209.8 206.001 206.4 198.751 206.4C188.101 206.4 180.351 214.3 180.351 223.75C180.351 233.8 188.101 241.6 198.751 241.6C205.951 241.6 211.601 237.85 214.651 232.75L207.701 228.75Z" fill="white"/>
</g>
<g filter="url(#filter2_d)">
<path d="M166.46 136.314C166.497 134.169 166.179 132.034 165.518 129.994C165.329 129.425 165.101 128.869 164.836 128.331C164.639 128.272 164.442 128.204 164.241 128.149L164.411 127.537C163.878 126.616 163.232 125.765 162.487 125.005C161.36 125.35 160.23 125.671 159.097 125.969C144.444 129.869 128.989 129.535 114.517 125.005C113.774 125.765 113.129 126.616 112.597 127.537L112.767 128.149C112.565 128.204 112.372 128.272 112.171 128.331C111.907 128.869 111.679 129.425 111.489 129.994C110.829 132.034 110.51 134.169 110.547 136.314C110.547 140.999 111.824 146.268 114.142 151.518L114.599 152.335L114.528 152.375C116.309 156.193 118.507 159.801 121.08 163.135C126.921 170.727 133.926 175.826 138.502 175.826C139.277 175.814 140.046 175.695 140.788 175.471C145.223 174.187 150.989 169.546 155.928 163.135C158.5 159.801 160.696 156.192 162.475 152.375L162.408 152.335L162.866 151.518C165.183 146.268 166.46 140.999 166.46 136.314ZM138.502 156.996C136.57 156.995 134.682 156.421 133.076 155.345C131.471 154.269 130.219 152.74 129.481 150.951C128.742 149.162 128.549 147.195 128.926 145.296C129.304 143.398 130.234 141.654 131.601 140.285C132.967 138.917 134.707 137.985 136.602 137.608C138.496 137.23 140.46 137.424 142.245 138.165C144.029 138.906 145.554 140.161 146.628 141.77C147.701 143.38 148.273 145.272 148.273 147.208C148.27 149.804 147.24 152.292 145.408 154.127C143.576 155.962 141.092 156.994 138.502 156.996Z" fill="#E5D1E6"/>
<path d="M163.406 137.609C163.45 135.343 163.092 133.087 162.349 130.946C162.18 130.487 161.991 130.045 161.782 129.615C161.585 129.551 161.388 129.488 161.183 129.433L161.356 128.821C160.745 127.761 159.985 126.797 159.097 125.957C144.444 129.857 128.989 129.523 114.517 124.993C114.123 124.878 113.764 124.76 113.385 124.637C111.819 125.738 110.508 127.165 109.542 128.821L109.7 129.385V129.433C109.499 129.488 109.306 129.551 109.101 129.615C108.013 131.838 107.481 134.485 107.481 137.609C107.481 142.294 108.758 147.564 111.076 152.813L111.529 153.631L111.462 153.67C113.243 157.488 115.44 161.097 118.013 164.43C123.855 172.018 130.859 177.122 135.435 177.122C136.984 177.122 138.809 176.537 140.776 175.471C144.619 173.385 148.995 169.451 152.862 164.43C155.433 161.097 157.629 157.488 159.409 153.67L159.342 153.631L159.799 152.813C162.129 147.564 163.406 142.294 163.406 137.609Z" fill="#B972AF"/>
<path d="M104.406 132.308C98.0009 137.183 95.1314 144.099 94.2524 146.643C92.3052 152.268 92.8018 155.764 93.2118 156.427C95.4664 158.154 99.0731 155.886 104.733 152.055C105.545 151.51 106.373 150.953 107.209 150.404C105.344 145.454 104.237 140.359 104.237 135.472C104.235 134.415 104.292 133.359 104.406 132.308Z" fill="#A5489B"/>
<path d="M169.795 150.404C170.631 150.953 171.459 151.51 172.271 152.055C177.931 155.886 181.538 158.154 183.792 156.427C184.186 155.764 184.699 152.268 182.752 146.643C181.873 144.099 179.003 137.183 172.598 132.308C172.712 133.358 172.768 134.413 172.767 135.468C172.767 140.359 171.66 145.454 169.795 150.404Z" fill="#A5489B"/>
<path d="M138.502 143.345C137.74 143.345 136.994 143.571 136.36 143.996C135.726 144.42 135.232 145.024 134.94 145.73C134.649 146.436 134.572 147.212 134.721 147.962C134.87 148.711 135.237 149.399 135.776 149.94C136.315 150.48 137.002 150.848 137.75 150.997C138.498 151.146 139.273 151.069 139.977 150.777C140.682 150.485 141.284 149.99 141.707 149.354C142.131 148.719 142.357 147.972 142.357 147.208C142.356 146.184 141.949 145.202 141.227 144.478C140.504 143.753 139.524 143.346 138.502 143.345Z" fill="#E5D1E6"/>
<path d="M89.2622 87.6967V97.1965C89.264 98.5001 89.654 99.7735 90.3822 100.854C91.1103 101.934 92.1436 102.772 93.3497 103.26V81.6373C92.1436 82.1244 91.1102 82.9614 90.3819 84.041C89.6536 85.1206 89.2637 86.3936 89.2622 87.6967Z" fill="#A5489B"/>
<path d="M164.809 61.3815C163.859 61.3104 162.905 61.2591 161.951 61.1998L159.744 68.0492C157.674 74.4917 152.597 78.6551 146.815 78.6551H129.684C123.74 78.6551 120.638 74.1599 118.73 67.429V60.4177C117.812 60.477 112.964 61.3144 112.029 61.3815C104.237 61.9582 98.1271 68.6141 98.1271 76.5299V109.643C98.1156 112.706 99.0298 115.7 100.749 118.232C102.469 120.764 104.913 122.715 107.761 123.828C128.1 131.866 148.727 131.866 169.062 123.828C171.912 122.717 174.359 120.767 176.081 118.235C177.803 115.703 178.718 112.707 178.707 109.643V76.5299C178.707 68.6141 172.606 61.9582 164.809 61.3815Z" fill="#E5D1E6"/>
<path d="M161.829 59.284C160.875 59.2129 159.921 59.1616 158.967 59.0984L156.764 65.9478C154.694 72.3942 149.618 76.5576 143.831 76.5576H126.704C120.76 76.5576 117.639 72.0624 115.75 65.3316V58.3163C114.832 58.3795 109.984 59.2169 109.05 59.284C101.253 59.8607 95.1471 66.5126 95.1471 74.4325V107.542C95.1348 110.608 96.0503 113.605 97.773 116.139C99.4957 118.673 101.945 120.624 104.796 121.734C125.136 129.773 145.759 129.773 166.098 121.734C168.946 120.622 171.391 118.67 173.111 116.137C174.831 113.605 175.744 110.609 175.731 107.546V74.4325C175.731 66.5126 169.641 59.8607 161.829 59.284Z" fill="#B972AF"/>
<path d="M129.759 73.5674H146.886C150.524 73.5674 153.784 70.7747 155.187 66.4573L156.996 60.9036C150.847 60.5928 144.683 60.4335 138.502 60.4256C132.277 60.4256 126.062 60.5876 119.858 60.9115L121.312 65.9873C122.613 70.518 126.011 73.5674 129.759 73.5674Z" fill="#E5D1E6"/>
<path d="M183.654 81.6373V103.26C184.86 102.772 185.894 101.934 186.622 100.854C187.35 99.7735 187.74 98.5001 187.742 97.1965V87.6967C187.74 86.3936 187.35 85.1206 186.622 84.041C185.894 82.9614 184.86 82.1244 183.654 81.6373Z" fill="#A5489B"/>
<path d="M138.502 137.42C136.57 137.421 134.682 137.995 133.076 139.071C131.471 140.147 130.219 141.676 129.481 143.465C128.742 145.254 128.549 147.222 128.927 149.12C129.304 151.019 130.234 152.762 131.601 154.131C132.967 155.499 134.707 156.431 136.602 156.808C138.496 157.186 140.46 156.992 142.245 156.251C144.029 155.51 145.554 154.255 146.628 152.646C147.701 151.036 148.273 149.144 148.273 147.208C148.27 144.612 147.24 142.124 145.408 140.289C143.576 138.454 141.092 137.422 138.502 137.42ZM138.502 151.071C137.74 151.07 136.995 150.843 136.361 150.418C135.728 149.993 135.234 149.39 134.943 148.684C134.652 147.978 134.576 147.201 134.725 146.452C134.875 145.703 135.242 145.015 135.781 144.475C136.321 143.935 137.008 143.568 137.755 143.419C138.503 143.27 139.278 143.347 139.982 143.639C140.686 143.932 141.288 144.427 141.711 145.062C142.135 145.697 142.361 146.444 142.361 147.208C142.36 148.233 141.953 149.216 141.229 149.94C140.506 150.664 139.525 151.071 138.502 151.071Z" fill="#5C2467"/>
<path d="M184.048 76.2376C184.001 71.1356 182.045 66.237 178.567 62.5105C175.089 58.784 170.343 56.5007 165.266 56.1122C157.501 55.5473 149.448 55.2274 141.332 55.1642V52.7941C143.66 52.1116 145.664 50.6108 146.977 48.5671C148.29 46.5233 148.823 44.0737 148.479 41.6677C148.135 39.2617 146.937 37.0607 145.104 35.4686C143.271 33.8765 140.927 33 138.502 33C136.077 33 133.732 33.8765 131.9 35.4686C130.067 37.0607 128.869 39.2617 128.525 41.6677C128.181 44.0737 128.714 46.5233 130.027 48.5671C131.34 50.6108 133.344 52.1116 135.672 52.7941V55.1642C127.556 55.2274 119.511 55.5592 111.738 56.1122C106.661 56.5007 101.915 58.784 98.4367 62.5105C94.9589 66.237 93.003 71.1356 92.9556 76.2376C90.4062 76.8809 88.1428 78.3555 86.5215 80.4293C84.9002 82.5031 84.0131 85.0583 84 87.6928V97.1926C84.0131 99.827 84.9002 102.382 86.5215 104.456C88.1428 106.53 90.4062 108.004 92.9556 108.648C92.9556 116.718 96.9761 123.042 102.96 126.553C88.6118 135.792 84.067 156.131 89.6839 160.67C95.6832 165.544 102.766 159.998 109.44 155.535C116.535 169.988 129.357 182 138.502 182C147.647 182 160.485 169.98 167.568 155.535C174.289 160.026 181.321 165.52 187.324 160.67C192.905 156.155 188.447 135.82 174.044 126.549C175.477 125.711 176.801 124.699 177.986 123.535C181.833 119.775 184.044 114.747 184.044 108.648C186.594 108.004 188.857 106.53 190.479 104.456C192.1 102.382 192.987 99.827 193 97.1926V87.6967C192.988 85.0621 192.102 82.5064 190.481 80.4319C188.861 78.3573 186.598 76.8818 184.048 76.2376ZM92.9556 102.644C91.9594 102.127 91.1245 101.345 90.5425 100.384C89.9606 99.4236 89.6539 98.3206 89.6564 97.1966V87.6967C89.651 86.57 89.9563 85.4637 90.5384 84.4998C91.1206 83.5358 91.957 82.7517 92.9556 82.2338V102.644ZM134.079 43.1284C134.077 42.2513 134.334 41.3933 134.819 40.6629C135.303 39.9325 135.993 39.3626 136.801 39.0254C137.609 38.6881 138.499 38.5986 139.358 38.7683C140.216 38.938 141.005 39.3591 141.625 39.9785C142.245 40.5978 142.667 41.3875 142.839 42.2475C143.01 43.1076 142.923 43.9993 142.589 44.8098C142.255 45.6203 141.688 46.3132 140.96 46.8007C140.233 47.2883 139.377 47.5485 138.502 47.5485C137.331 47.5475 136.209 47.0818 135.38 46.2534C134.551 45.4251 134.084 44.3014 134.079 43.1284ZM138.502 60.8088C144.355 60.8088 150.394 60.9628 156.464 61.263L154.813 66.327C153.461 70.4864 150.351 73.1724 146.886 73.1724H129.759C126.184 73.1724 122.944 70.2375 121.691 65.8688L120.37 61.2709C126.484 60.9668 132.589 60.8088 138.502 60.8088ZM93.2157 156.427C91.639 153.868 94.1617 140.11 104.41 132.308C103.748 138.309 105.068 144.708 107.213 150.4C100.662 154.721 95.9315 158.497 93.2157 156.427ZM162.408 152.335L162.475 152.375C156.468 165.355 145.112 175.826 138.502 175.826C131.994 175.826 120.642 165.556 114.529 152.375L114.599 152.335C112.026 147.737 108.979 137.293 111.489 129.982C129.032 135.786 147.972 135.786 165.514 129.982C168.183 137.748 164.517 148.547 162.408 152.335ZM183.792 156.427C181.084 158.501 176.338 154.713 169.795 150.4C171.939 144.708 173.256 138.309 172.598 132.308C182.578 139.904 185.491 153.658 183.792 156.427ZM178.392 109.07C178.396 112.032 177.5 114.924 175.825 117.363C174.149 119.802 171.772 121.672 169.011 122.726C159.297 126.584 148.951 128.593 138.502 128.651C130.037 128.625 121.627 127.293 113.567 124.701C108.265 122.998 106.026 122.129 103.776 120.225C102.154 118.858 100.851 117.151 99.9588 115.224C99.0667 113.297 98.6069 111.198 98.6119 109.074V76.3482C98.627 72.6581 100.028 69.109 102.536 66.4074C105.045 63.7057 108.476 62.0496 112.148 61.7686C113.417 61.6817 114.19 61.6422 114.584 61.6146L116.251 67.433C118.222 74.2587 123.638 78.8407 129.759 78.8407H146.886C152.846 78.8407 158.069 74.6181 160.193 68.0848L162.306 61.6067C163.619 61.6896 164.111 61.7133 164.852 61.7686C168.525 62.0486 171.957 63.7043 174.466 66.4061C176.975 69.1079 178.377 72.6575 178.392 76.3482V109.07ZM187.348 97.1966C187.35 98.3206 187.043 99.4236 186.461 100.384C185.879 101.345 185.045 102.127 184.048 102.644V82.2338C185.045 82.7505 185.879 83.5321 186.461 84.493C187.043 85.4539 187.35 86.5569 187.348 87.6809V97.1966Z" fill="#5C2467"/>
<path d="M155.727 86.7526C152.487 86.7526 149.854 90.5921 149.854 95.3163C149.854 100.041 152.487 103.88 155.727 103.88C158.967 103.88 161.6 100.037 161.6 95.3163C161.6 90.596 158.963 86.7526 155.727 86.7526Z" fill="#5C2467"/>
<path d="M121.277 86.7526C118.041 86.7526 115.404 90.5921 115.404 95.3163C115.404 100.041 118.041 103.88 121.277 103.88C124.513 103.88 127.15 100.037 127.15 95.3163C127.15 90.596 124.517 86.7526 121.277 86.7526Z" fill="#5C2467"/>
<path d="M138.502 48.5716C141.467 48.5716 143.871 46.1629 143.871 43.1916C143.871 40.2203 141.467 37.8116 138.502 37.8116C135.537 37.8116 133.133 40.2203 133.133 43.1916C133.133 46.1629 135.537 48.5716 138.502 48.5716Z" fill="#E5D1E6"/>
<path d="M145.313 119.886H131.525V116.05H134.008V117.397H142.834V116.05H145.313V119.886Z" fill="#5C2467"/>
</g>
</g>
<defs>
<filter id="filter0_d" x="-4" y="0" width="292" height="292" filterUnits="userSpaceOnUse" color-interpolation-filters="sRGB">
<feFlood flood-opacity="0" result="BackgroundImageFix"/>
<feColorMatrix in="SourceAlpha" type="matrix" values="0 0 0 0 0 0 0 0 0 0 0 0 0 0 0 0 0 0 127 0"/>
<feOffset dy="4"/>
<feGaussianBlur stdDeviation="2"/>
<feColorMatrix type="matrix" values="0 0 0 0 0 0 0 0 0 0 0 0 0 0 0 0 0 0 0.25 0"/>
<feBlend mode="normal" in2="BackgroundImageFix" result="effect1_dropShadow"/>
<feBlend mode="normal" in="SourceGraphic" in2="effect1_dropShadow" result="shape"/>
</filter>
<filter id="filter1_d" x="64.4641" y="206.4" width="152.287" height="39.2" filterUnits="userSpaceOnUse" color-interpolation-filters="sRGB">
<feFlood flood-opacity="0" result="BackgroundImageFix"/>
<feColorMatrix in="SourceAlpha" type="matrix" values="0 0 0 0 0 0 0 0 0 0 0 0 0 0 0 0 0 0 127 0"/>
<feOffset dy="2"/>
<feGaussianBlur stdDeviation="1"/>
<feColorMatrix type="matrix" values="0 0 0 0 0 0 0 0 0 0 0 0 0 0 0 0 0 0 0.25 0"/>
<feBlend mode="normal" in2="BackgroundImageFix" result="effect1_dropShadow"/>
<feBlend mode="normal" in="SourceGraphic" in2="effect1_dropShadow" result="shape"/>
</filter>
<filter id="filter2_d" x="82" y="33" width="113" height="153" filterUnits="userSpaceOnUse" color-interpolation-filters="sRGB">
<feFlood flood-opacity="0" result="BackgroundImageFix"/>
<feColorMatrix in="SourceAlpha" type="matrix" values="0 0 0 0 0 0 0 0 0 0 0 0 0 0 0 0 0 0 127 0"/>
<feOffset dy="2"/>
<feGaussianBlur stdDeviation="1"/>
<feColorMatrix type="matrix" values="0 0 0 0 0 0 0 0 0 0 0 0 0 0 0 0 0 0 0.25 0"/>
<feBlend mode="normal" in2="BackgroundImageFix" result="effect1_dropShadow"/>
<feBlend mode="normal" in="SourceGraphic" in2="effect1_dropShadow" result="shape"/>
</filter>
<linearGradient id="paint0_linear" x1="99" y1="373" x2="284" y2="-6.78508e-06" gradientUnits="userSpaceOnUse">
<stop stop-color="#7A4392"/>
<stop offset="1" stop-color="#F14359"/>
</linearGradient>
<clipPath id="clip0">
<rect width="284" height="284" fill="white"/>
</clipPath>
</defs>
</svg>
